<?xml version="1.0" encoding="UTF-8"?><svg xmlns="http://www.w3.org/2000/svg" xmlns:xlink="http://www.w3.org/1999/xlink" fill-opacity="1" color-rendering="auto" color-interpolation="auto" text-rendering="auto" stroke="black" stroke-linecap="square" width="965" stroke-miterlimit="10" shape-rendering="auto" stroke-opacity="1" fill="black" stroke-dasharray="none" font-weight="normal" stroke-width="1" height="1510" font-family="'Dialog'" font-style="normal" stroke-linejoin="miter" font-size="12px" stroke-dashoffset="0" image-rendering="auto">
  <!--Generated by ySVG 2.5-->
  <defs id="genericDefs"/>
  <g>
    <defs id="defs1">
      <linearGradient x1="176.8373" gradientUnits="userSpaceOnUse" x2="247.5385" y1="0" y2="40" id="linearGradient1" spreadMethod="reflect">
        <stop stop-opacity="1" stop-color="rgb(232,238,247)" offset="0%"/>
        <stop stop-opacity="1" stop-color="rgb(183,201,227)" offset="100%"/>
      </linearGradient>
      <linearGradient x1="150.3332" gradientUnits="userSpaceOnUse" x2="229.8176" y1="376.5312" y2="416.5312" id="linearGradient2" spreadMethod="reflect">
        <stop stop-opacity="1" stop-color="rgb(232,238,247)" offset="0%"/>
        <stop stop-opacity="1" stop-color="rgb(183,201,227)" offset="100%"/>
      </linearGradient>
      <linearGradient x1="267.9268" gradientUnits="userSpaceOnUse" x2="340.2101" y1="376.5312" y2="416.5312" id="linearGradient3" spreadMethod="reflect">
        <stop stop-opacity="1" stop-color="rgb(204,255,204)" offset="0%"/>
        <stop stop-opacity="1" stop-color="rgb(0,204,51)" offset="100%"/>
      </linearGradient>
      <linearGradient x1="244.4552" gradientUnits="userSpaceOnUse" x2="323.9396" y1="505.6641" y2="545.6641" id="linearGradient4" spreadMethod="reflect">
        <stop stop-opacity="1" stop-color="rgb(232,238,247)" offset="0%"/>
        <stop stop-opacity="1" stop-color="rgb(183,201,227)" offset="100%"/>
      </linearGradient>
      <linearGradient x1="25.0001" gradientUnits="userSpaceOnUse" x2="97.2833" y1="1111.9609" y2="1151.9609" id="linearGradient5" spreadMethod="reflect">
        <stop stop-opacity="1" stop-color="rgb(204,255,204)" offset="0%"/>
        <stop stop-opacity="1" stop-color="rgb(0,204,51)" offset="100%"/>
      </linearGradient>
      <linearGradient x1="105.3449" gradientUnits="userSpaceOnUse" x2="140.8488" y1="1390.8594" y2="1430.8594" id="linearGradient6" spreadMethod="reflect">
        <stop stop-opacity="1" stop-color="rgb(232,238,247)" offset="0%"/>
        <stop stop-opacity="1" stop-color="rgb(183,201,227)" offset="100%"/>
      </linearGradient>
      <linearGradient x1="257.7865" gradientUnits="userSpaceOnUse" x2="330.4798" y1="683.4297" y2="723.4297" id="linearGradient7" spreadMethod="reflect">
        <stop stop-opacity="1" stop-color="rgb(232,238,247)" offset="0%"/>
        <stop stop-opacity="1" stop-color="rgb(183,201,227)" offset="100%"/>
      </linearGradient>
      <linearGradient x1="39.4701" gradientUnits="userSpaceOnUse" x2="118.9545" y1="918.6953" y2="958.6953" id="linearGradient8" spreadMethod="reflect">
        <stop stop-opacity="1" stop-color="rgb(232,238,247)" offset="0%"/>
        <stop stop-opacity="1" stop-color="rgb(183,201,227)" offset="100%"/>
      </linearGradient>
      <linearGradient x1="413.9708" gradientUnits="userSpaceOnUse" x2="460.045" y1="1111.9609" y2="1151.9609" id="linearGradient9" spreadMethod="reflect">
        <stop stop-opacity="1" stop-color="rgb(232,238,247)" offset="0%"/>
        <stop stop-opacity="1" stop-color="rgb(183,201,227)" offset="100%"/>
      </linearGradient>
      <linearGradient x1="170.8488" gradientUnits="userSpaceOnUse" x2="302.1242" y1="1390.8594" y2="1430.8594" id="linearGradient10" spreadMethod="reflect">
        <stop stop-opacity="1" stop-color="rgb(232,238,247)" offset="0%"/>
        <stop stop-opacity="1" stop-color="rgb(183,201,227)" offset="100%"/>
      </linearGradient>
      <linearGradient x1="528.59" gradientUnits="userSpaceOnUse" x2="661.4767" y1="1390.8594" y2="1430.8594" id="linearGradient11" spreadMethod="reflect">
        <stop stop-opacity="1" stop-color="rgb(232,238,247)" offset="0%"/>
        <stop stop-opacity="1" stop-color="rgb(183,201,227)" offset="100%"/>
      </linearGradient>
      <linearGradient x1="339.8199" gradientUnits="userSpaceOnUse" x2="447.523" y1="1390.8594" y2="1430.8594" id="linearGradient12" spreadMethod="reflect">
        <stop stop-opacity="1" stop-color="rgb(232,238,247)" offset="0%"/>
        <stop stop-opacity="1" stop-color="rgb(183,201,227)" offset="100%"/>
      </linearGradient>
      <linearGradient x1="817.5451" gradientUnits="userSpaceOnUse" x2="939.7795" y1="1390.8594" y2="1430.8594" id="linearGradient13" spreadMethod="reflect">
        <stop stop-opacity="1" stop-color="rgb(232,238,247)" offset="0%"/>
        <stop stop-opacity="1" stop-color="rgb(183,201,227)" offset="100%"/>
      </linearGradient>
      <linearGradient x1="322.5248" gradientUnits="userSpaceOnUse" x2="358.222" y1="918.6953" y2="958.6953" id="linearGradient14" spreadMethod="reflect">
        <stop stop-opacity="1" stop-color="rgb(232,238,247)" offset="0%"/>
        <stop stop-opacity="1" stop-color="rgb(183,201,227)" offset="100%"/>
      </linearGradient>
      <linearGradient x1="191.6996" gradientUnits="userSpaceOnUse" x2="232.6762" y1="188.2656" y2="228.2656" id="linearGradient15" spreadMethod="reflect">
        <stop stop-opacity="1" stop-color="rgb(232,238,247)" offset="0%"/>
        <stop stop-opacity="1" stop-color="rgb(183,201,227)" offset="100%"/>
      </linearGradient>
      <clipPath clipPathUnits="userSpaceOnUse" id="clipPath1">
        <path d="M0 0 L965 0 L965 1510 L0 1510 L0 0 Z"/>
      </clipPath>
      <clipPath clipPathUnits="userSpaceOnUse" id="clipPath2">
        <path d="M-10 -15 L955 -15 L955 1495 L-10 1495 L-10 -15 Z"/>
      </clipPath>
    </defs>
    <g fill="white" text-rendering="geometricPrecision" shape-rendering="geometricPrecision" transform="translate(10,15)" stroke="white">
      <rect x="-10" width="965" height="1510" y="-15" clip-path="url(#clipPath2)" stroke="none"/>
    </g>
    <g fill="url(#linearGradient1)" text-rendering="geometricPrecision" shape-rendering="geometricPrecision" transform="matrix(1,0,0,1,10,15)" stroke="url(#linearGradient1)">
      <ellipse rx="35.3506" ry="20" clip-path="url(#clipPath2)" cx="212.1879" cy="20" stroke="none"/>
    </g>
    <g text-rendering="geometricPrecision" stroke-miterlimit="1.45" shape-rendering="geometricPrecision" transform="matrix(1,0,0,1,10,15)" stroke-linecap="butt">
      <ellipse rx="35.3506" fill="none" ry="20" clip-path="url(#clipPath2)" cx="212.1879" cy="20"/>
      <text x="183.8373" xml:space="preserve" y="24.5352" clip-path="url(#clipPath2)" font-family="sans-serif" stroke="none">Comment</text>
    </g>
    <g fill="url(#linearGradient2)" text-rendering="geometricPrecision" shape-rendering="geometricPrecision" transform="matrix(1,0,0,1,10,15)" stroke="url(#linearGradient2)">
      <ellipse rx="39.7422" ry="20" clip-path="url(#clipPath2)" cx="190.0754" cy="396.5313" stroke="none"/>
    </g>
    <g text-rendering="geometricPrecision" stroke-miterlimit="1.45" shape-rendering="geometricPrecision" transform="matrix(1,0,0,1,10,15)" stroke-linecap="butt">
      <ellipse rx="39.7422" fill="none" ry="20" clip-path="url(#clipPath2)" cx="190.0754" cy="396.5313"/>
      <text x="157.3332" xml:space="preserve" y="401.0664" clip-path="url(#clipPath2)" font-family="sans-serif" stroke="none">Whitespace</text>
    </g>
    <g fill="url(#linearGradient3)" text-rendering="geometricPrecision" shape-rendering="geometricPrecision" transform="matrix(1,0,0,1,10,15)" stroke="url(#linearGradient3)">
      <ellipse rx="36.1416" ry="20" clip-path="url(#clipPath2)" cx="304.0685" cy="396.5313" stroke="none"/>
    </g>
    <g text-rendering="geometricPrecision" stroke-miterlimit="1.45" shape-rendering="geometricPrecision" transform="matrix(1,0,0,1,10,15)" stroke-linecap="butt">
      <ellipse rx="36.1416" fill="none" ry="20" clip-path="url(#clipPath2)" cx="304.0685" cy="396.5313"/>
      <text x="274.9268" xml:space="preserve" y="401.0664" clip-path="url(#clipPath2)" font-family="sans-serif" stroke="none">Datablock</text>
    </g>
    <g fill="url(#linearGradient4)" text-rendering="geometricPrecision" shape-rendering="geometricPrecision" transform="matrix(1,0,0,1,10,15)" stroke="url(#linearGradient4)">
      <ellipse rx="39.7422" ry="20" clip-path="url(#clipPath2)" cx="284.1974" cy="525.6641" stroke="none"/>
    </g>
    <g text-rendering="geometricPrecision" stroke-miterlimit="1.45" shape-rendering="geometricPrecision" transform="matrix(1,0,0,1,10,15)" stroke-linecap="butt">
      <ellipse rx="39.7422" fill="none" ry="20" clip-path="url(#clipPath2)" cx="284.1974" cy="525.6641"/>
      <text x="251.4552" xml:space="preserve" y="530.1992" clip-path="url(#clipPath2)" font-family="sans-serif" stroke="none">Whitespace</text>
    </g>
    <g fill="url(#linearGradient5)" text-rendering="geometricPrecision" shape-rendering="geometricPrecision" transform="matrix(1,0,0,1,10,15)" stroke="url(#linearGradient5)">
      <ellipse rx="36.1416" ry="20" clip-path="url(#clipPath2)" cx="61.1417" cy="1131.9609" stroke="none"/>
    </g>
    <g text-rendering="geometricPrecision" stroke-miterlimit="1.45" shape-rendering="geometricPrecision" transform="matrix(1,0,0,1,10,15)" stroke-linecap="butt">
      <ellipse rx="36.1416" fill="none" ry="20" clip-path="url(#clipPath2)" cx="61.1417" cy="1131.9609"/>
      <text x="32.0001" xml:space="preserve" y="1136.4961" clip-path="url(#clipPath2)" font-family="sans-serif" stroke="none">Datablock</text>
    </g>
    <g fill="url(#linearGradient6)" text-rendering="geometricPrecision" shape-rendering="geometricPrecision" transform="matrix(1,0,0,1,10,15)" stroke="url(#linearGradient6)">
      <ellipse rx="17.752" ry="20" clip-path="url(#clipPath2)" cx="123.0968" cy="1410.8594" stroke="none"/>
    </g>
    <g text-rendering="geometricPrecision" stroke-miterlimit="1.45" shape-rendering="geometricPrecision" transform="matrix(1,0,0,1,10,15)" stroke-linecap="butt">
      <ellipse rx="17.752" fill="none" ry="20" clip-path="url(#clipPath2)" cx="123.0968" cy="1410.8594"/>
      <text x="112.3449" xml:space="preserve" y="1415.3945" clip-path="url(#clipPath2)" font-family="sans-serif" stroke="none">End</text>
    </g>
    <g fill="url(#linearGradient7)" text-rendering="geometricPrecision" shape-rendering="geometricPrecision" transform="matrix(1,0,0,1,10,15)" stroke="url(#linearGradient7)">
      <ellipse rx="36.3467" ry="20" clip-path="url(#clipPath2)" cx="294.1331" cy="703.4297" stroke="none"/>
    </g>
    <g text-rendering="geometricPrecision" stroke-miterlimit="1.45" shape-rendering="geometricPrecision" transform="matrix(1,0,0,1,10,15)" stroke-linecap="butt">
      <ellipse rx="36.3467" fill="none" ry="20" clip-path="url(#clipPath2)" cx="294.1331" cy="703.4297"/>
      <text x="264.7865" xml:space="preserve" y="707.9648" clip-path="url(#clipPath2)" font-family="sans-serif" stroke="none">Dataitems</text>
    </g>
    <g fill="url(#linearGradient8)" text-rendering="geometricPrecision" shape-rendering="geometricPrecision" transform="matrix(1,0,0,1,10,15)" stroke="url(#linearGradient8)">
      <ellipse rx="39.7422" ry="20" clip-path="url(#clipPath2)" cx="79.2123" cy="938.6953" stroke="none"/>
    </g>
    <g text-rendering="geometricPrecision" stroke-miterlimit="1.45" shape-rendering="geometricPrecision" transform="matrix(1,0,0,1,10,15)" stroke-linecap="butt">
      <ellipse rx="39.7422" fill="none" ry="20" clip-path="url(#clipPath2)" cx="79.2123" cy="938.6953"/>
      <text x="46.4701" xml:space="preserve" y="943.2305" clip-path="url(#clipPath2)" font-family="sans-serif" stroke="none">Whitespace</text>
    </g>
    <g fill="url(#linearGradient9)" text-rendering="geometricPrecision" shape-rendering="geometricPrecision" transform="matrix(1,0,0,1,10,15)" stroke="url(#linearGradient9)">
      <ellipse rx="23.0371" ry="20" clip-path="url(#clipPath2)" cx="437.0079" cy="1131.9609" stroke="none"/>
    </g>
    <g text-rendering="geometricPrecision" stroke-miterlimit="1.45" shape-rendering="geometricPrecision" transform="matrix(1,0,0,1,10,15)" stroke-linecap="butt">
      <ellipse rx="23.0371" fill="none" ry="20" clip-path="url(#clipPath2)" cx="437.0079" cy="1131.9609"/>
      <text x="420.9708" xml:space="preserve" y="1136.4961" clip-path="url(#clipPath2)" font-family="sans-serif" stroke="none">Value</text>
    </g>
    <g fill="url(#linearGradient10)" text-rendering="geometricPrecision" shape-rendering="geometricPrecision" transform="matrix(1,0,0,1,10,15)" stroke="url(#linearGradient10)">
      <ellipse rx="65.6377" ry="20" clip-path="url(#clipPath2)" cx="236.4865" cy="1410.8594" stroke="none"/>
    </g>
    <g text-rendering="geometricPrecision" stroke-miterlimit="1.45" shape-rendering="geometricPrecision" transform="matrix(1,0,0,1,10,15)" stroke-linecap="butt">
      <ellipse rx="65.6377" fill="none" ry="20" clip-path="url(#clipPath2)" cx="236.4865" cy="1410.8594"/>
      <text x="177.8488" xml:space="preserve" y="1415.3945" clip-path="url(#clipPath2)" font-family="sans-serif" stroke="none">single quoted string</text>
    </g>
    <g fill="url(#linearGradient11)" text-rendering="geometricPrecision" shape-rendering="geometricPrecision" transform="matrix(1,0,0,1,10,15)" stroke="url(#linearGradient11)">
      <ellipse rx="66.4434" ry="20" clip-path="url(#clipPath2)" cx="595.0333" cy="1410.8594" stroke="none"/>
    </g>
    <g text-rendering="geometricPrecision" stroke-miterlimit="1.45" shape-rendering="geometricPrecision" transform="matrix(1,0,0,1,10,15)" stroke-linecap="butt">
      <ellipse rx="66.4434" fill="none" ry="20" clip-path="url(#clipPath2)" cx="595.0333" cy="1410.8594"/>
      <text x="535.59" xml:space="preserve" y="1415.3945" clip-path="url(#clipPath2)" font-family="sans-serif" stroke="none">doublequoted string</text>
    </g>
    <g fill="url(#linearGradient12)" text-rendering="geometricPrecision" shape-rendering="geometricPrecision" transform="matrix(1,0,0,1,10,15)" stroke="url(#linearGradient12)">
      <ellipse rx="53.8516" ry="20" clip-path="url(#clipPath2)" cx="393.6714" cy="1410.8594" stroke="none"/>
    </g>
    <g text-rendering="geometricPrecision" stroke-miterlimit="1.45" shape-rendering="geometricPrecision" transform="matrix(1,0,0,1,10,15)" stroke-linecap="butt">
      <ellipse rx="53.8516" fill="none" ry="20" clip-path="url(#clipPath2)" cx="393.6714" cy="1410.8594"/>
      <text x="346.8199" xml:space="preserve" y="1415.3945" clip-path="url(#clipPath2)" font-family="sans-serif" stroke="none">unquoted string</text>
    </g>
    <g fill="url(#linearGradient13)" text-rendering="geometricPrecision" shape-rendering="geometricPrecision" transform="matrix(1,0,0,1,10,15)" stroke="url(#linearGradient13)">
      <ellipse rx="61.1172" ry="20" clip-path="url(#clipPath2)" cx="878.6623" cy="1410.8594" stroke="none"/>
    </g>
    <g text-rendering="geometricPrecision" stroke-miterlimit="1.45" shape-rendering="geometricPrecision" transform="matrix(1,0,0,1,10,15)" stroke-linecap="butt">
      <ellipse rx="61.1172" fill="none" ry="20" clip-path="url(#clipPath2)" cx="878.6623" cy="1410.8594"/>
      <text x="824.5451" xml:space="preserve" y="1415.3945" clip-path="url(#clipPath2)" font-family="sans-serif" stroke="none">Semicolontextfield</text>
    </g>
    <g fill="rgb(245,245,245)" text-rendering="geometricPrecision" shape-rendering="geometricPrecision" transform="matrix(1,0,0,1,10,15)" stroke="rgb(245,245,245)">
      <rect x="417.7671" y="913.6953" clip-path="url(#clipPath2)" width="50" rx="4" ry="4" height="50" stroke="none"/>
    </g>
    <g fill="rgb(235,235,235)" text-rendering="geometricPrecision" shape-rendering="geometricPrecision" transform="matrix(1,0,0,1,10,15)" stroke="rgb(235,235,235)">
      <rect x="410.8879" width="63.7583" height="21.666" y="913.6953" clip-path="url(#clipPath2)" stroke="none"/>
    </g>
    <g font-size="15px" stroke-linecap="butt" transform="matrix(1,0,0,1,10,15)" text-rendering="geometricPrecision" font-family="sans-serif" shape-rendering="geometricPrecision" stroke-miterlimit="1.45">
      <text x="412.8879" xml:space="preserve" y="930.1973" clip-path="url(#clipPath2)" stroke="none">Folder 1</text>
      <rect x="417.7671" y="913.6953" clip-path="url(#clipPath2)" fill="none" width="50" stroke-dasharray="6,2" rx="4" ry="4" height="50"/>
    </g>
    <g fill="url(#linearGradient14)" text-rendering="geometricPrecision" shape-rendering="geometricPrecision" transform="matrix(1,0,0,1,10,15)" stroke="url(#linearGradient14)">
      <ellipse rx="17.8486" ry="20" clip-path="url(#clipPath2)" cx="340.3734" cy="938.6953" stroke="none"/>
    </g>
    <g text-rendering="geometricPrecision" stroke-miterlimit="1.45" shape-rendering="geometricPrecision" transform="matrix(1,0,0,1,10,15)" stroke-linecap="butt">
      <ellipse rx="17.8486" fill="none" ry="20" clip-path="url(#clipPath2)" cx="340.3734" cy="938.6953"/>
      <text x="329.5248" xml:space="preserve" y="943.2305" clip-path="url(#clipPath2)" font-family="sans-serif" stroke="none">Tag</text>
    </g>
    <g fill="url(#linearGradient15)" text-rendering="geometricPrecision" shape-rendering="geometricPrecision" transform="matrix(1,0,0,1,10,15)" stroke="url(#linearGradient15)">
      <ellipse rx="20.4883" ry="20" clip-path="url(#clipPath2)" cx="212.1879" cy="208.2656" stroke="none"/>
    </g>
    <g text-rendering="geometricPrecision" stroke-miterlimit="1.45" shape-rendering="geometricPrecision" transform="matrix(1,0,0,1,10,15)" stroke-linecap="butt">
      <ellipse rx="20.4883" fill="none" ry="20" clip-path="url(#clipPath2)" cx="212.1879" cy="208.2656"/>
      <text x="198.6996" xml:space="preserve" y="212.8008" clip-path="url(#clipPath2)" font-family="sans-serif" stroke="none">Start</text>
    </g>
    <g text-rendering="geometricPrecision" stroke-miterlimit="1.45" shape-rendering="geometricPrecision" transform="matrix(1,0,0,1,10,15)" stroke-linecap="butt">
      <path fill="none" d="M304.0685 416.5312 L304.0685 500.3203" clip-path="url(#clipPath2)"/>
      <path d="M304.0685 508.3203 L309.0685 496.3203 L304.0685 499.3203 L299.0685 496.3203 Z" clip-path="url(#clipPath2)" stroke="none"/>
      <text x="254.6329" xml:space="preserve" y="465.6328" clip-path="url(#clipPath2)" font-family="sans-serif" stroke="none">Newline or space</text>
      <path fill="none" d="M254.3908 538.9281 L254.3908 585.2305 L124.6642 585.2305 L124.6642 485.1641 L264.3263 485.1641 L264.3263 500.3203" clip-path="url(#clipPath2)"/>
      <path d="M264.3263 508.3203 L269.3263 496.3203 L264.3263 499.3203 L259.3263 496.3203 Z" clip-path="url(#clipPath2)" stroke="none"/>
      <text x="185.9064" xml:space="preserve" y="589.7656" clip-path="url(#clipPath2)" font-family="sans-serif" stroke="none">Whitespace</text>
      <path fill="none" d="M43.0709 1114.6172 L43.0709 1032.3281 L5.2151 1032.3281 L5.2151 614.7969 L274.2619 614.7969 L274.2619 553.0419" clip-path="url(#clipPath2)"/>
      <path d="M274.2619 545.0419 L269.2619 557.0419 L274.2619 554.0419 L279.2619 557.0419 Z" clip-path="url(#clipPath2)" stroke="none"/>
      <path fill="none" d="M61.1417 1151.9609 L61.1417 1311.2266 L114.2208 1311.2266 L114.2208 1385.5156" clip-path="url(#clipPath2)"/>
      <path d="M114.2208 1393.5156 L119.2208 1381.5156 L114.2208 1384.5156 L109.2208 1381.5156 Z" clip-path="url(#clipPath2)" stroke="none"/>
      <text x="31.6837" xml:space="preserve" y="1289.4443" clip-path="url(#clipPath2)" font-family="sans-serif" stroke="none">End of file</text>
      <path fill="none" d="M294.133 545.0416 L294.1331 675.4297" clip-path="url(#clipPath2)"/>
      <path d="M294.1331 683.4297 L299.1331 671.4297 L294.1331 674.4297 L289.1331 671.4297 Z" clip-path="url(#clipPath2)" stroke="none"/>
      <text x="260.4651" xml:space="preserve" y="652.2097" clip-path="url(#clipPath2)" font-family="sans-serif" stroke="none">Tag or loop</text>
      <path fill="none" d="M271.4165 719.0682 L271.4165 764.9297 L152.2095 764.9297 L152.2095 1297.1602 L131.9728 1297.1602 L131.9728 1385.5156" clip-path="url(#clipPath2)"/>
      <path d="M131.9728 1393.5156 L136.9728 1381.5156 L131.9728 1384.5156 L126.9728 1381.5156 Z" clip-path="url(#clipPath2)" stroke="none"/>
      <text x="122.7515" xml:space="preserve" y="1035.5801" clip-path="url(#clipPath2)" font-family="sans-serif" stroke="none">End of file</text>
      <path fill="none" d="M262.3298 713.1161 L262.3298 743.9297 L79.2123 743.9297 L79.2123 910.6953" clip-path="url(#clipPath2)"/>
      <path d="M79.2123 918.6953 L84.2123 906.6953 L79.2123 909.6953 L74.2123 906.6953 Z" clip-path="url(#clipPath2)" stroke="none"/>
      <text x="29.7768" xml:space="preserve" y="849.4736" clip-path="url(#clipPath2)" font-family="sans-serif" stroke="none">Newline or space</text>
      <path fill="none" d="M79.2123 958.6953 L79.2125 1106.6172" clip-path="url(#clipPath2)"/>
      <path d="M79.2125 1114.6172 L84.2125 1102.6172 L79.2125 1105.6172 L74.2125 1102.6172 Z" clip-path="url(#clipPath2)" stroke="none"/>
      <text x="28.2153" xml:space="preserve" y="1001.569" clip-path="url(#clipPath2)" font-family="sans-serif" stroke="none">startswith('_data')</text>
      <path fill="none" d="M417.8103 1143.0396 L417.8103 1191.5273 L282.7049 1191.5273 L282.7049 1091.4609 L419.7301 1091.4609 L419.7301 1110.7156" clip-path="url(#clipPath2)"/>
      <path d="M419.7301 1118.7156 L424.7301 1106.7156 L419.7301 1109.7156 L414.7301 1106.7156 Z" clip-path="url(#clipPath2)" stroke="none"/>
      <text x="327.242" xml:space="preserve" y="1196.0625" clip-path="url(#clipPath2)" font-family="sans-serif" stroke="none">not whitespace</text>
      <path fill="none" d="M454.2858 1118.6951 L454.2858 1070.4609 L834.806 1070.4609 L834.806 566.1641 L314.0041 566.1641 L314.0041 546.9095" clip-path="url(#clipPath2)"/>
      <path d="M314.0041 538.9095 L309.0041 550.9095 L314.0041 547.9095 L319.0041 550.9095 Z" clip-path="url(#clipPath2)" stroke="none"/>
      <text x="812.5814" xml:space="preserve" y="847.0558" clip-path="url(#clipPath2)" font-family="sans-serif" stroke="none">newline</text>
      <path fill="none" d="M425.4894 1149.3047 L425.4894 1221.0938 L299.8059 1221.0938 L299.8059 1370.3594 L269.3054 1370.3594 L269.3054 1385.5156" clip-path="url(#clipPath2)"/>
      <path d="M269.3054 1393.5156 L274.3054 1381.5156 L269.3054 1384.5156 L264.3054 1381.5156 Z" clip-path="url(#clipPath2)" stroke="none"/>
      <text x="270.8929" xml:space="preserve" y="1284.1201" clip-path="url(#clipPath2)" font-family="sans-serif" stroke="none">startwith '</text>
      <path fill="none" d="M203.6677 1393.5156 L203.6679 785.9297 L280.5031 785.9297 L280.5031 729.9922" clip-path="url(#clipPath2)"/>
      <path d="M280.5031 721.9922 L275.5031 733.9922 L280.5031 730.9922 L285.5031 733.9922 Z" clip-path="url(#clipPath2)" stroke="none"/>
      <text x="181.4432" xml:space="preserve" y="1002.0164" clip-path="url(#clipPath2)" font-family="sans-serif" stroke="none">newline</text>
      <path fill="none" d="M448.5265 1149.3047 L448.5265 1193.4609 L561.8115 1193.4609 L561.8116 1385.5156" clip-path="url(#clipPath2)"/>
      <path d="M561.8116 1393.5156 L566.8116 1381.5156 L561.8116 1384.5156 L556.8116 1381.5156 Z" clip-path="url(#clipPath2)" stroke="none"/>
      <text x="532.0313" xml:space="preserve" y="1325.761" clip-path="url(#clipPath2)" font-family="sans-serif" stroke="none">startwith "</text>
      <path fill="none" d="M628.255 1393.5156 L628.255 1339.1602 L711.8409 1339.1602 L711.8409 1075.4609 Q716.8409 1075.4609 716.8409 1070.4609 Q716.8409 1065.4609 711.8409 1065.4609 L711.8409 764.9297 L316.8498 764.9297 L316.8498 727.0682" clip-path="url(#clipPath2)"/>
      <path d="M316.8498 719.0682 L311.8498 731.0682 L316.8498 728.0682 L321.8498 731.0682 Z" clip-path="url(#clipPath2)" stroke="none"/>
      <text x="689.6163" xml:space="preserve" y="1001.1703" clip-path="url(#clipPath2)" font-family="sans-serif" stroke="none">newline</text>
      <path fill="none" d="M440.8474 1151.7103 L440.8474 1214.4609 L487.5369 1214.4609 L487.5369 1349.3594 L429.5725 1349.3594 L429.5725 1387.9076" clip-path="url(#clipPath2)"/>
      <path d="M429.5725 1395.9076 L434.5725 1383.9076 L429.5725 1386.9076 L424.5725 1383.9076 Z" clip-path="url(#clipPath2)" stroke="none"/>
      <text x="435.2625" xml:space="preserve" y="1286.4453" clip-path="url(#clipPath2)" font-family="sans-serif" stroke="none">eol+ordinary char</text>
      <path fill="none" d="M433.1684 1151.7239 L433.1684 1242.0938 L393.6714 1242.0938 L393.6714 1382.8594" clip-path="url(#clipPath2)"/>
      <path d="M393.6714 1390.8594 L398.6714 1378.8594 L393.6714 1381.8594 L388.6714 1378.8594 Z" clip-path="url(#clipPath2)" stroke="none"/>
      <text x="321.8062" xml:space="preserve" y="1316.4492" clip-path="url(#clipPath2)" font-family="sans-serif" stroke="none">noteol+ordinarychar or ;</text>
      <path fill="none" d="M357.7704 1395.9076 L357.7704 1349.3594 L304.8059 1349.3594 Q304.8059 1344.3594 299.8059 1344.3594 Q294.8059 1344.3594 294.8059 1349.3594 L247.8929 1349.3594 L247.8929 806.9297 L289.5898 806.9297 L289.5898 731.4297" clip-path="url(#clipPath2)"/>
      <path d="M289.5898 723.4297 L284.5898 735.4297 L289.5898 732.4297 L294.5898 735.4297 Z" clip-path="url(#clipPath2)" stroke="none"/>
      <text x="225.6682" xml:space="preserve" y="1056.5648" clip-path="url(#clipPath2)" font-family="sans-serif" stroke="none">newline</text>
      <path fill="none" d="M456.2055 1143.021 L456.2055 1172.4609 L636.3262 1172.4609 L636.3262 1318.1602 L706.8409 1318.1602 Q706.8409 1313.1602 711.8409 1313.1602 Q716.8409 1313.1602 716.8409 1318.1602 L878.6623 1318.1602 L878.6623 1382.8594" clip-path="url(#clipPath2)"/>
      <path d="M878.6623 1390.8594 L883.6623 1378.8594 L878.6623 1381.8594 L873.6623 1378.8594 Z" clip-path="url(#clipPath2)" stroke="none"/>
      <text x="583.8115" xml:space="preserve" y="1281.2373" clip-path="url(#clipPath2)" font-family="sans-serif" stroke="none">eol+startswith(";")</text>
      <path fill="none" d="M878.6623 1430.8594 L878.6623 1470.4258 L691.9767 1470.4258 L691.9767 1370.3594 L837.9175 1370.3594 L837.9175 1387.9032" clip-path="url(#clipPath2)"/>
      <path d="M837.9175 1395.9032 L842.9175 1383.9032 L837.9175 1386.9032 L832.9175 1383.9032 Z" clip-path="url(#clipPath2)" stroke="none"/>
      <text x="774.5939" xml:space="preserve" y="1474.9609" clip-path="url(#clipPath2)" font-family="sans-serif" stroke="none">not startswith(";")</text>
      <path fill="none" d="M919.4071 1395.9049 L919.4071 1297.1602 L772.8234 1297.1602 L772.8234 1075.4609 Q777.8234 1075.4609 777.8234 1070.4609 Q777.8234 1065.4609 772.8234 1065.4609 L772.8234 743.9297 L325.9365 743.9297 L325.9365 721.1161" clip-path="url(#clipPath2)"/>
      <path d="M325.9365 713.1161 L320.9365 725.1161 L325.9365 722.1161 L330.9365 725.1161 Z" clip-path="url(#clipPath2)" stroke="none"/>
      <text x="733.841" xml:space="preserve" y="1051.735" clip-path="url(#clipPath2)" font-family="sans-serif" stroke="none">startswith(";")</text>
      <path fill="none" d="M307.7632 721.9922 L307.7632 785.9297 L442.7671 785.9297 L442.7671 905.6641" clip-path="url(#clipPath2)"/>
      <path d="M442.7671 913.6641 L447.7671 901.6641 L442.7671 904.6641 L437.7671 901.6641 Z" clip-path="url(#clipPath2)" stroke="none"/>
      <text x="393.3667" xml:space="preserve" y="882.6211" clip-path="url(#clipPath2)" font-family="sans-serif" stroke="none">Startswith '_loop'</text>
      <path fill="none" d="M442.7671 963.6953 L442.7672 1104.5808" clip-path="url(#clipPath2)"/>
      <path d="M442.7672 1112.5808 L447.7672 1100.5808 L442.7672 1103.5808 L437.7672 1100.5808 Z" clip-path="url(#clipPath2)" stroke="none"/>
      <text x="398.983" xml:space="preserve" y="1042.3633" clip-path="url(#clipPath2)" font-family="sans-serif" stroke="none">not whitespace</text>
      <path fill="none" d="M298.6765 723.4297 L298.6765 806.9297 L340.3734 806.9297 L340.3734 910.6953" clip-path="url(#clipPath2)"/>
      <path d="M340.3734 918.6953 L345.3734 906.6953 L340.3734 909.6953 L335.3734 906.6953 Z" clip-path="url(#clipPath2)" stroke="none"/>
      <text x="259.9799" xml:space="preserve" y="842.1582" clip-path="url(#clipPath2)" font-family="sans-serif" stroke="none">startswith('_') and not _loop</text>
      <path fill="none" d="M340.3734 958.6953 L340.3734 1070.4609 L431.2487 1070.4609 L431.2487 1104.576" clip-path="url(#clipPath2)"/>
      <path d="M431.2487 1112.576 L436.2487 1100.576 L431.2487 1103.576 L426.2487 1100.576 Z" clip-path="url(#clipPath2)" stroke="none"/>
      <text x="291.6469" xml:space="preserve" y="1003.0488" clip-path="url(#clipPath2)" font-family="sans-serif" stroke="none">newline or space</text>
      <path fill="none" d="M209.9465 379.1875 L209.9465 356.0312 L212.1879 356.0312 L212.1879 236.2656" clip-path="url(#clipPath2)"/>
      <path d="M212.1879 228.2656 L207.1879 240.2656 L212.1879 237.2656 L217.1879 240.2656 Z" clip-path="url(#clipPath2)" stroke="none"/>
      <text x="189.9633" xml:space="preserve" y="334.082" clip-path="url(#clipPath2)" font-family="sans-serif" stroke="none">newline</text>
      <path fill="none" d="M229.8632 37.3438 L229.8632 60.5 L242.7597 60.5 L242.7597 167.7656 L222.432 167.7656 L222.432 182.9219" clip-path="url(#clipPath2)"/>
      <path d="M222.432 190.9219 L227.432 178.9219 L222.432 181.9219 L217.432 178.9219 Z" clip-path="url(#clipPath2)" stroke="none"/>
      <text x="220.5351" xml:space="preserve" y="140.4512" clip-path="url(#clipPath2)" font-family="sans-serif" stroke="none">newline</text>
      <path fill="none" d="M198.529 223.2219 L198.529 248.7656 L167.9629 248.7656 L167.9629 356.0312 L170.2043 356.0312 L170.2043 371.1875" clip-path="url(#clipPath2)"/>
      <path d="M170.2043 379.1875 L175.2043 367.1875 L170.2043 370.1875 L165.2043 367.1875 Z" clip-path="url(#clipPath2)" stroke="none"/>
      <text x="151.3984" xml:space="preserve" y="285.1504" clip-path="url(#clipPath2)" font-family="sans-serif" stroke="none">space</text>
      <path fill="none" d="M201.9438 190.9219 L201.9438 167.7656 L181.6161 167.7656 L181.6161 60.5 L194.5126 60.5 L194.5126 45.3438" clip-path="url(#clipPath2)"/>
      <path d="M194.5126 37.3438 L189.5126 49.3438 L194.5126 46.3438 L199.5126 49.3438 Z" clip-path="url(#clipPath2)" stroke="none"/>
      <text x="142.4725" xml:space="preserve" y="96.8848" clip-path="url(#clipPath2)" font-family="sans-serif" stroke="none">startswith('#')</text>
      <path fill="none" d="M225.8468 223.2219 L225.8468 248.7656 L304.0685 248.7656 L304.0685 368.5312" clip-path="url(#clipPath2)"/>
      <path d="M304.0685 376.5312 L309.0685 364.5312 L304.0685 367.5312 L299.0685 364.5312 Z" clip-path="url(#clipPath2)" stroke="none"/>
      <text x="253.0714" xml:space="preserve" y="296.2031" clip-path="url(#clipPath2)" font-family="sans-serif" stroke="none">startswith('_data')</text>
    </g>
  </g>
</svg>
